<svg width="69" height="40" viewBox="0 0 69 40" fill="none" xmlns="http://www.w3.org/2000/svg">
<path d="M12.2539 33.4368C7.56584 33.1073 3.59353 30.1384 1.6531 26.4223C-0.692915 21.9267 -0.521934 16.933 2.0388 12.7548C6.5161 5.44706 16.6994 4.08916 22.7632 10.2118L34.2905 21.8424L41.3802 28.9171C44.8714 32.4003 50.3905 32.8422 54.8042 30.5522C58.9554 28.3989 61.5837 23.602 61.0628 18.54L33.7934 18.4918L28.2425 12.8914L35.9406 5.18191C39.6903 1.42959 44.8952 -0.177395 50.1082 0.0154432C57.683 0.296666 64.2995 5.05335 67.2102 11.6541C70.5264 19.1667 69.1466 27.4266 63.7985 33.4328C56.5736 41.54 43.6308 42.3756 35.9128 34.6259L17.4231 16.0451C15.5383 14.1529 12.9139 13.8355 10.6634 15.089C8.60763 16.234 7.36305 18.8373 8.08276 21.3362L19.8406 21.3562L25.3995 26.9204C21.789 31.1508 18.2501 33.8626 12.2539 33.4408V33.4368Z" fill="#3F6CE6"/>
</svg>
