<svg width="571" height="545" viewBox="0 0 571 545" fill="none" xmlns="http://www.w3.org/2000/svg">
<g filter="url(#filter0_f_176_54)">
<ellipse cx="285.146" cy="234.232" rx="185.145" ry="134.232" fill="#184BBA" fill-opacity="0.15"/>
</g>
<g filter="url(#filter1_i_176_54)">
<mask id="path-2-inside-1_176_54" fill="white">
<path d="M517.666 321.948C517.666 263.028 493.241 206.52 449.765 164.857C406.289 123.194 347.323 99.7883 285.839 99.7883C224.355 99.7883 165.389 123.194 121.913 164.857C78.4368 206.52 54.0122 263.028 54.0122 321.948L285.839 321.948H517.666Z"/>
</mask>
<path d="M517.666 321.948C517.666 263.028 493.241 206.52 449.765 164.857C406.289 123.194 347.323 99.7883 285.839 99.7883C224.355 99.7883 165.389 123.194 121.913 164.857C78.4368 206.52 54.0122 263.028 54.0122 321.948L285.839 321.948H517.666Z" stroke="url(#paint0_linear_176_54)" stroke-width="2" mask="url(#path-2-inside-1_176_54)"/>
</g>
<g filter="url(#filter2_i_176_54)">
<mask id="path-3-inside-2_176_54" fill="white">
<path d="M423.138 310.65C423.138 293.285 419.568 276.089 412.634 260.045C405.699 244.001 395.534 229.423 382.721 217.144C369.907 204.865 354.695 195.124 337.953 188.478C321.211 181.833 303.267 178.412 285.145 178.412C267.024 178.412 249.08 181.833 232.338 188.478C215.596 195.124 200.384 204.865 187.57 217.144C174.756 229.423 164.592 244.001 157.657 260.045C150.722 276.089 147.153 293.285 147.153 310.651L285.145 310.65H423.138Z"/>
</mask>
<path d="M423.138 310.65C423.138 293.285 419.568 276.089 412.634 260.045C405.699 244.001 395.534 229.423 382.721 217.144C369.907 204.865 354.695 195.124 337.953 188.478C321.211 181.833 303.267 178.412 285.145 178.412C267.024 178.412 249.08 181.833 232.338 188.478C215.596 195.124 200.384 204.865 187.57 217.144C174.756 229.423 164.592 244.001 157.657 260.045C150.722 276.089 147.153 293.285 147.153 310.651L285.145 310.65H423.138Z" stroke="url(#paint1_linear_176_54)" stroke-width="2" mask="url(#path-3-inside-2_176_54)"/>
</g>
<g filter="url(#filter3_i_176_54)">
<mask id="path-4-inside-3_176_54" fill="white">
<path d="M345.474 310.651C345.474 295.318 339.118 280.613 327.804 269.771C316.49 258.929 301.146 252.838 285.145 252.838C269.145 252.838 253.801 258.929 242.487 269.771C231.173 280.613 224.817 295.318 224.817 310.651L285.145 310.651H345.474Z"/>
</mask>
<path d="M345.474 310.651C345.474 295.318 339.118 280.613 327.804 269.771C316.49 258.929 301.146 252.838 285.145 252.838C269.145 252.838 253.801 258.929 242.487 269.771C231.173 280.613 224.817 295.318 224.817 310.651L285.145 310.651H345.474Z" stroke="url(#paint2_linear_176_54)" stroke-width="2" mask="url(#path-4-inside-3_176_54)"/>
</g>
<g filter="url(#filter4_d_176_54)">
<rect x="124.742" y="260.601" width="135.912" height="41.1998" rx="15" fill="white"/>
<path d="M145.89 275.834H147.052L150.86 285.788H149.502L148.55 283.184H144.406L143.454 285.788H142.096L145.89 275.834ZM146.478 277.458L144.798 282.106H148.158L146.478 277.458ZM152.06 275.834H153.39V285.788H152.06V275.834ZM162.958 283.674H157.75V276.184H162.958V283.674ZM158.954 282.666H161.74V277.192H158.954V282.666ZM165.982 279.558H167.746V280.608H165.982V286.558H164.764V275.05H165.982V279.558ZM172.812 276.394C172.812 277.57 172.681 278.615 172.42 279.53H173.946V275.344H175.094V285.998H173.946V280.552H172.056C171.393 282.045 170.245 283.263 168.612 284.206L167.926 283.338C169.429 282.47 170.465 281.369 171.034 280.034L168.094 280.342L167.94 279.264L171.356 279.054C171.496 278.522 171.58 277.976 171.608 277.416H168.486V276.394H172.812ZM177.446 286.558H176.284V275.05H177.446V286.558ZM184.472 276.898H180.342V278.144H184.136V279.124H180.342V280.412C181.481 280.412 182.414 280.393 183.142 280.356C183.879 280.309 184.603 280.225 185.312 280.104L185.452 281.098C184.696 281.229 183.931 281.317 183.156 281.364C182.391 281.401 181.355 281.42 180.048 281.42H179.124V275.904H184.472V276.898ZM187.706 282.106H186.474V275.064H187.706V282.106ZM183.968 282.302C185.144 282.302 186.068 282.489 186.74 282.862C187.421 283.235 187.762 283.753 187.762 284.416C187.762 285.079 187.421 285.597 186.74 285.97C186.068 286.343 185.144 286.53 183.968 286.53C182.783 286.53 181.859 286.343 181.196 285.97C180.533 285.606 180.202 285.088 180.202 284.416C180.202 283.744 180.533 283.226 181.196 282.862C181.859 282.489 182.783 282.302 183.968 282.302ZM183.968 283.268C183.156 283.268 182.526 283.371 182.078 283.576C181.639 283.772 181.42 284.052 181.42 284.416C181.42 284.78 181.639 285.065 182.078 285.27C182.526 285.466 183.156 285.564 183.968 285.564C184.78 285.564 185.41 285.466 185.858 285.27C186.306 285.065 186.53 284.78 186.53 284.416C186.53 284.052 186.306 283.772 185.858 283.576C185.41 283.371 184.78 283.268 183.968 283.268ZM200.886 283.408H199.654V275.064H200.886V283.408ZM201.194 286.32H193.606V282.568H194.838V285.298H201.194V286.32ZM194.852 275.848C195.402 275.848 195.902 275.969 196.35 276.212C196.807 276.455 197.162 276.795 197.414 277.234C197.675 277.663 197.806 278.153 197.806 278.704C197.806 279.255 197.675 279.749 197.414 280.188C197.162 280.617 196.807 280.953 196.35 281.196C195.902 281.439 195.402 281.56 194.852 281.56C194.301 281.56 193.797 281.439 193.34 281.196C192.892 280.953 192.537 280.613 192.276 280.174C192.014 279.735 191.884 279.245 191.884 278.704C191.884 278.163 192.014 277.673 192.276 277.234C192.537 276.795 192.892 276.455 193.34 276.212C193.797 275.969 194.301 275.848 194.852 275.848ZM194.852 276.94C194.348 276.94 193.928 277.103 193.592 277.43C193.256 277.757 193.088 278.181 193.088 278.704C193.088 279.227 193.256 279.651 193.592 279.978C193.928 280.305 194.348 280.468 194.852 280.468C195.356 280.468 195.776 280.305 196.112 279.978C196.448 279.651 196.616 279.227 196.616 278.704C196.616 278.181 196.448 277.757 196.112 277.43C195.776 277.103 195.356 276.94 194.852 276.94ZM206.974 276.716H203.908V277.766H206.54V278.718H203.908V279.852C204.636 279.852 205.266 279.833 205.798 279.796C206.339 279.759 206.88 279.689 207.422 279.586L207.548 280.552C206.894 280.664 206.264 280.743 205.658 280.79C205.051 280.827 204.323 280.846 203.474 280.846H202.732V275.736H206.974V276.716ZM211.72 281.224H210.558V275.064H211.72V281.224ZM209.536 281.126H208.374V278.578H207.044V277.598H208.374V275.274H209.536V281.126ZM211.72 284.5H205.49V285.466H212.14V286.446H204.286V283.576H210.516V282.694H204.258V281.714H211.72V284.5ZM222.05 286.572H220.832V275.05H222.05V286.572ZM218.648 280.314H214.7V282.792C215.708 282.783 216.608 282.75 217.402 282.694C218.195 282.638 219.021 282.535 219.88 282.386L219.978 283.408C219.063 283.567 218.172 283.679 217.304 283.744C216.436 283.8 215.47 283.828 214.406 283.828H213.454V279.32H217.402V277.108H213.44V276.086H218.648V280.314ZM232.674 283.492H231.442V279.194H229.356V278.172H231.442V275.064H232.674V283.492ZM232.954 286.32H225.464V282.736H226.654V285.298H232.954V286.32ZM227.41 277.388C227.41 278.116 227.648 278.802 228.124 279.446C228.6 280.081 229.244 280.547 230.056 280.846L229.44 281.84C228.833 281.616 228.301 281.289 227.844 280.86C227.396 280.431 227.046 279.927 226.794 279.348C226.551 279.983 226.192 280.538 225.716 281.014C225.249 281.49 224.694 281.849 224.05 282.092L223.42 281.084C224.26 280.785 224.927 280.295 225.422 279.614C225.916 278.923 226.164 278.177 226.164 277.374V276.954H223.784V275.946H229.762V276.954H227.41V277.388ZM239.658 276.688C239.658 277.295 239.84 277.883 240.204 278.452C240.577 279.021 241.072 279.511 241.688 279.922C242.304 280.323 242.971 280.589 243.69 280.72L243.13 281.742C242.224 281.546 241.403 281.168 240.666 280.608C239.938 280.048 239.392 279.371 239.028 278.578C238.664 279.353 238.113 280.025 237.376 280.594C236.638 281.154 235.812 281.537 234.898 281.742L234.366 280.72C235.075 280.58 235.733 280.309 236.34 279.908C236.956 279.497 237.446 279.007 237.81 278.438C238.174 277.869 238.356 277.285 238.356 276.688V275.82H239.658V276.688ZM244.138 285.06H234.002V284.01H244.138V285.06Z" fill="#111111"/>
</g>
<g filter="url(#filter5_d_176_54)">
<rect x="368.829" y="231.362" width="92.9195" height="41.1998" rx="15" fill="white"/>
<path d="M391.77 257.559H390.594V246.051H391.77V257.559ZM389.474 256.985H388.34V251.413H386.072V250.377H388.34V246.303H389.474V256.985ZM386.828 248.445H383.818V253.821C384.593 253.811 385.237 253.788 385.75 253.751C386.273 253.704 386.8 253.62 387.332 253.499L387.444 254.535C386.847 254.665 386.245 254.754 385.638 254.801C385.041 254.847 384.28 254.871 383.356 254.871H382.628V247.437H386.828V248.445ZM402.002 257.573H400.784V246.051H402.002V257.573ZM396.066 246.933C396.617 246.933 397.107 247.101 397.536 247.437C397.975 247.763 398.316 248.23 398.558 248.837C398.801 249.443 398.922 250.153 398.922 250.965C398.922 251.777 398.801 252.486 398.558 253.093C398.316 253.699 397.975 254.171 397.536 254.507C397.107 254.833 396.617 254.997 396.066 254.997C395.506 254.997 395.007 254.833 394.568 254.507C394.139 254.171 393.803 253.699 393.56 253.093C393.318 252.486 393.196 251.777 393.196 250.965C393.196 250.153 393.318 249.443 393.56 248.837C393.803 248.221 394.139 247.749 394.568 247.423C395.007 247.096 395.506 246.933 396.066 246.933ZM396.066 248.053C395.553 248.053 395.142 248.314 394.834 248.837C394.526 249.359 394.372 250.069 394.372 250.965C394.372 251.861 394.526 252.57 394.834 253.093C395.142 253.606 395.553 253.863 396.066 253.863C396.57 253.863 396.976 253.606 397.284 253.093C397.592 252.57 397.746 251.861 397.746 250.965C397.746 250.069 397.592 249.359 397.284 248.837C396.976 248.314 396.57 248.053 396.066 248.053ZM412.654 257.573H411.436V251.315H409.266V250.293H411.436V246.051H412.654V257.573ZM409.084 248.109H405.122V250.307H408.622V251.301H405.122V253.849C406.121 253.839 406.956 253.811 407.628 253.765C408.31 253.718 409 253.634 409.7 253.513L409.826 254.535C409.052 254.665 408.282 254.754 407.516 254.801C406.751 254.847 405.832 254.871 404.758 254.871H403.918V247.087H409.084V248.109ZM426.716 253.079H422.334V255.151H421.13V253.079H416.566V252.071H426.716V253.079ZM425.582 257.321H417.812V254.185H419.03V256.299H425.582V257.321ZM419.114 247.801H424.168V246.429H425.372V251.077H417.896V246.429H419.114V247.801ZM424.168 250.083V248.753H419.114V250.083H424.168ZM431.096 247.885C431.096 248.659 431.329 249.373 431.796 250.027C432.272 250.671 432.916 251.137 433.728 251.427L433.098 252.421C432.501 252.197 431.978 251.87 431.53 251.441C431.082 251.002 430.737 250.493 430.494 249.915C430.242 250.559 429.887 251.114 429.43 251.581C428.973 252.047 428.422 252.407 427.778 252.659L427.134 251.651C427.993 251.352 428.66 250.853 429.136 250.153C429.621 249.453 429.864 248.673 429.864 247.815V246.653H431.096V247.885ZM436.416 257.559H435.17V254.479H428.884V253.471H436.416V257.559ZM436.416 252.869H435.17V249.411H432.874V248.375H435.17V246.051H436.416V252.869ZM446.396 250.629H448.09V251.665H446.396V257.531H445.178V246.051H446.396V250.629ZM443.484 247.283C443.484 249.037 443.078 250.61 442.266 252.001C441.463 253.391 440.185 254.535 438.43 255.431L437.758 254.479C440.502 253.041 442 250.988 442.252 248.319H438.304V247.283H443.484Z" fill="#111111"/>
</g>
<g filter="url(#filter6_d_176_54)">
<rect x="85.9099" y="137.001" width="133.138" height="41.1998" rx="15" fill="white"/>
<path d="M111.434 163.572H110.202V152.05H111.434V163.572ZM104.056 155.956H106.968V153.016H108.186V160.842H102.824V153.016H104.056V155.956ZM106.968 159.806V156.95H104.056V159.806H106.968ZM122.954 162.088H112.818V161.052H122.954V162.088ZM118.516 154.472C118.516 155.041 118.698 155.587 119.062 156.11C119.426 156.623 119.912 157.062 120.518 157.426C121.134 157.781 121.802 158.014 122.52 158.126L122.03 159.12C121.116 158.943 120.285 158.597 119.538 158.084C118.792 157.571 118.241 156.945 117.886 156.208C117.532 156.945 116.986 157.58 116.248 158.112C115.511 158.635 114.685 158.989 113.77 159.176L113.28 158.168C113.98 158.056 114.634 157.818 115.24 157.454C115.847 157.081 116.328 156.633 116.682 156.11C117.046 155.587 117.228 155.041 117.228 154.472V154.164H113.658V153.142H122.086V154.164H118.516V154.472ZM132.612 163.558H131.394V152.05H132.612V163.558ZM125.276 159.568C127.068 159.549 128.753 159.372 130.33 159.036L130.498 160.086C128.8 160.45 126.966 160.632 124.996 160.632H124.058V153.184H125.276V159.568ZM139.638 153.688C139.638 154.295 139.82 154.883 140.184 155.452C140.558 156.021 141.052 156.511 141.668 156.922C142.284 157.323 142.952 157.589 143.67 157.72L143.11 158.742C142.205 158.546 141.384 158.168 140.646 157.608C139.918 157.048 139.372 156.371 139.008 155.578C138.644 156.353 138.094 157.025 137.356 157.594C136.619 158.154 135.793 158.537 134.878 158.742L134.346 157.72C135.056 157.58 135.714 157.309 136.32 156.908C136.936 156.497 137.426 156.007 137.79 155.438C138.154 154.869 138.336 154.285 138.336 153.688V152.82H139.638V153.688ZM144.118 162.06H133.982V161.01H144.118V162.06ZM157.298 162.13H147.162V161.094H151.6V158.476H148.31V152.974H156.108V158.476H152.818V161.094H157.298V162.13ZM149.5 157.468H154.904V153.982H149.5V157.468ZM167.25 158.126H166.102V152.064H167.25V158.126ZM165.08 158.056H163.918V155.522H161.874V154.556H163.918V152.302H165.08V158.056ZM162.532 153.688H159.48V156.67C160.255 156.661 160.899 156.642 161.412 156.614C161.925 156.577 162.448 156.507 162.98 156.404L163.078 157.412C162.462 157.515 161.855 157.585 161.258 157.622C160.67 157.659 159.919 157.678 159.004 157.678H158.276V152.68H162.532V153.688ZM167.25 161.416H160.978V162.41H167.628V163.404H159.774V160.492H166.06V159.596H159.746V158.602H167.25V161.416ZM181.06 159.078H176.678V161.15H175.474V159.078H170.91V158.07H181.06V159.078ZM179.926 163.32H172.156V160.184H173.374V162.298H179.926V163.32ZM173.458 153.8H178.512V152.428H179.716V157.076H172.24V152.428H173.458V153.8ZM178.512 156.082V154.752H173.458V156.082H178.512ZM185.44 153.884C185.44 154.659 185.673 155.373 186.14 156.026C186.616 156.67 187.26 157.137 188.072 157.426L187.442 158.42C186.844 158.196 186.322 157.869 185.874 157.44C185.426 157.001 185.08 156.493 184.838 155.914C184.586 156.558 184.231 157.113 183.774 157.58C183.316 158.047 182.766 158.406 182.122 158.658L181.478 157.65C182.336 157.351 183.004 156.852 183.48 156.152C183.965 155.452 184.208 154.673 184.208 153.814V152.652H185.44V153.884ZM190.76 163.558H189.514V160.478H183.228V159.47H190.76V163.558ZM190.76 158.868H189.514V155.41H187.218V154.374H189.514V152.05H190.76V158.868ZM200.74 156.628H202.434V157.664H200.74V163.53H199.522V152.05H200.74V156.628ZM197.828 153.282C197.828 155.037 197.422 156.609 196.61 158C195.807 159.391 194.528 160.534 192.774 161.43L192.102 160.478C194.846 159.041 196.344 156.987 196.596 154.318H192.648V153.282H197.828Z" fill="#111111"/>
</g>
<g filter="url(#filter7_d_176_54)">
<rect x="239.851" y="190.162" width="85.9852" height="41.1998" rx="15" fill="white"/>
<path d="M264.49 213.492H263.258V209.194H261.172V208.172H263.258V205.064H264.49V213.492ZM264.77 216.32H257.28V212.736H258.47V215.298H264.77V216.32ZM259.226 207.388C259.226 208.116 259.464 208.802 259.94 209.446C260.416 210.081 261.06 210.547 261.872 210.846L261.256 211.84C260.65 211.616 260.118 211.289 259.66 210.86C259.212 210.431 258.862 209.927 258.61 209.348C258.368 209.983 258.008 210.538 257.532 211.014C257.066 211.49 256.51 211.849 255.866 212.092L255.236 211.084C256.076 210.785 256.744 210.295 257.238 209.614C257.733 208.923 257.98 208.177 257.98 207.374V206.954H255.6V205.946H261.578V206.954H259.226V207.388ZM275.954 211.868H271.572V214.08H270.368V211.868H265.804V210.86H275.954V211.868ZM274.638 209.698H267.106V205.582H274.638V209.698ZM268.296 208.704H273.434V206.576H268.296V208.704ZM274.82 216.32H267.05V213.016H268.282V215.298H274.82V216.32ZM284.626 213.674H279.418V206.184H284.626V213.674ZM280.622 212.666H283.408V207.192H280.622V212.666ZM287.65 209.558H289.414V210.608H287.65V216.558H286.432V205.05H287.65V209.558ZM294.48 206.394C294.48 207.57 294.349 208.615 294.088 209.53H295.614V205.344H296.762V215.998H295.614V210.552H293.724C293.061 212.045 291.913 213.263 290.28 214.206L289.594 213.338C291.097 212.47 292.133 211.369 292.702 210.034L289.762 210.342L289.608 209.264L293.024 209.054C293.164 208.522 293.248 207.976 293.276 207.416H290.154V206.394H294.48ZM299.114 216.558H297.952V205.05H299.114V216.558ZM309.416 216.572H308.198V210.314H306.028V209.292H308.198V205.05H309.416V216.572ZM305.846 207.108H301.884V209.306H305.384V210.3H301.884V212.848C302.883 212.839 303.718 212.811 304.39 212.764C305.071 212.717 305.762 212.633 306.462 212.512L306.588 213.534C305.813 213.665 305.043 213.753 304.278 213.8C303.513 213.847 302.593 213.87 301.52 213.87H300.68V206.086H305.846V207.108Z" fill="#111111"/>
</g>
<g filter="url(#filter8_d_176_54)">
<rect x="350.8" y="115.737" width="65.1823" height="41.1998" rx="15" fill="white"/>
<path d="M375.378 141.788H374.062V131.834H377.73C378.468 131.834 379.098 131.965 379.62 132.226C380.152 132.478 380.554 132.833 380.824 133.29C381.095 133.748 381.23 134.275 381.23 134.872C381.23 135.834 380.927 136.576 380.32 137.098C379.714 137.621 378.85 137.882 377.73 137.882H375.378V141.788ZM375.378 136.818H377.73C378.468 136.818 379.014 136.646 379.368 136.3C379.723 135.946 379.9 135.474 379.9 134.886C379.9 134.326 379.718 133.86 379.354 133.486C378.99 133.104 378.449 132.912 377.73 132.912H375.378V136.818ZM390.865 131.834H392.587V141.788H391.257V137.896L391.383 133.752L388.121 141.788H387.113L383.865 133.752L383.991 137.896V141.788H382.675V131.834H384.383L387.631 139.968L390.865 131.834Z" fill="#111111"/>
</g>
<defs>
<filter id="filter0_f_176_54" x="0" y="0" width="570.291" height="468.463" filterUnits="userSpaceOnUse" color-interpolation-filters="sRGB">
<feFlood flood-opacity="0" result="BackgroundImageFix"/>
<feBlend mode="normal" in="SourceGraphic" in2="BackgroundImageFix" result="shape"/>
<feGaussianBlur stdDeviation="50" result="effect1_foregroundBlur_176_54"/>
</filter>
<filter id="filter1_i_176_54" x="54.0122" y="99.7883" width="463.654" height="222.16" filterUnits="userSpaceOnUse" color-interpolation-filters="sRGB">
<feFlood flood-opacity="0" result="BackgroundImageFix"/>
<feBlend mode="normal" in="SourceGraphic" in2="BackgroundImageFix" result="shape"/>
<feColorMatrix in="SourceAlpha" type="matrix" values="0 0 0 0 0 0 0 0 0 0 0 0 0 0 0 0 0 0 127 0" result="hardAlpha"/>
<feMorphology radius="2" operator="erode" in="SourceAlpha" result="effect1_innerShadow_176_54"/>
<feOffset/>
<feGaussianBlur stdDeviation="5"/>
<feComposite in2="hardAlpha" operator="arithmetic" k2="-1" k3="1"/>
<feColorMatrix type="matrix" values="0 0 0 0 1 0 0 0 0 1 0 0 0 0 1 0 0 0 0.25 0"/>
<feBlend mode="normal" in2="shape" result="effect1_innerShadow_176_54"/>
</filter>
<filter id="filter2_i_176_54" x="147.153" y="178.412" width="275.985" height="132.238" filterUnits="userSpaceOnUse" color-interpolation-filters="sRGB">
<feFlood flood-opacity="0" result="BackgroundImageFix"/>
<feBlend mode="normal" in="SourceGraphic" in2="BackgroundImageFix" result="shape"/>
<feColorMatrix in="SourceAlpha" type="matrix" values="0 0 0 0 0 0 0 0 0 0 0 0 0 0 0 0 0 0 127 0" result="hardAlpha"/>
<feMorphology radius="2" operator="erode" in="SourceAlpha" result="effect1_innerShadow_176_54"/>
<feOffset/>
<feGaussianBlur stdDeviation="5"/>
<feComposite in2="hardAlpha" operator="arithmetic" k2="-1" k3="1"/>
<feColorMatrix type="matrix" values="0 0 0 0 1 0 0 0 0 1 0 0 0 0 1 0 0 0 0.25 0"/>
<feBlend mode="normal" in2="shape" result="effect1_innerShadow_176_54"/>
</filter>
<filter id="filter3_i_176_54" x="224.817" y="252.838" width="120.657" height="57.8127" filterUnits="userSpaceOnUse" color-interpolation-filters="sRGB">
<feFlood flood-opacity="0" result="BackgroundImageFix"/>
<feBlend mode="normal" in="SourceGraphic" in2="BackgroundImageFix" result="shape"/>
<feColorMatrix in="SourceAlpha" type="matrix" values="0 0 0 0 0 0 0 0 0 0 0 0 0 0 0 0 0 0 127 0" result="hardAlpha"/>
<feMorphology radius="2" operator="erode" in="SourceAlpha" result="effect1_innerShadow_176_54"/>
<feOffset/>
<feGaussianBlur stdDeviation="5"/>
<feComposite in2="hardAlpha" operator="arithmetic" k2="-1" k3="1"/>
<feColorMatrix type="matrix" values="0 0 0 0 1 0 0 0 0 1 0 0 0 0 1 0 0 0 0.25 0"/>
<feBlend mode="normal" in2="shape" result="effect1_innerShadow_176_54"/>
</filter>
<filter id="filter4_d_176_54" x="120.742" y="260.601" width="143.912" height="49.1997" filterUnits="userSpaceOnUse" color-interpolation-filters="sRGB">
<feFlood flood-opacity="0" result="BackgroundImageFix"/>
<feColorMatrix in="SourceAlpha" type="matrix" values="0 0 0 0 0 0 0 0 0 0 0 0 0 0 0 0 0 0 127 0" result="hardAlpha"/>
<feOffset dy="4"/>
<feGaussianBlur stdDeviation="2"/>
<feComposite in2="hardAlpha" operator="out"/>
<feColorMatrix type="matrix" values="0 0 0 0 0 0 0 0 0 0 0 0 0 0 0 0 0 0 0.25 0"/>
<feBlend mode="normal" in2="BackgroundImageFix" result="effect1_dropShadow_176_54"/>
<feBlend mode="normal" in="SourceGraphic" in2="effect1_dropShadow_176_54" result="shape"/>
</filter>
<filter id="filter5_d_176_54" x="364.829" y="231.362" width="100.919" height="49.1997" filterUnits="userSpaceOnUse" color-interpolation-filters="sRGB">
<feFlood flood-opacity="0" result="BackgroundImageFix"/>
<feColorMatrix in="SourceAlpha" type="matrix" values="0 0 0 0 0 0 0 0 0 0 0 0 0 0 0 0 0 0 127 0" result="hardAlpha"/>
<feOffset dy="4"/>
<feGaussianBlur stdDeviation="2"/>
<feComposite in2="hardAlpha" operator="out"/>
<feColorMatrix type="matrix" values="0 0 0 0 0 0 0 0 0 0 0 0 0 0 0 0 0 0 0.25 0"/>
<feBlend mode="normal" in2="BackgroundImageFix" result="effect1_dropShadow_176_54"/>
<feBlend mode="normal" in="SourceGraphic" in2="effect1_dropShadow_176_54" result="shape"/>
</filter>
<filter id="filter6_d_176_54" x="81.9099" y="137.001" width="141.138" height="49.1997" filterUnits="userSpaceOnUse" color-interpolation-filters="sRGB">
<feFlood flood-opacity="0" result="BackgroundImageFix"/>
<feColorMatrix in="SourceAlpha" type="matrix" values="0 0 0 0 0 0 0 0 0 0 0 0 0 0 0 0 0 0 127 0" result="hardAlpha"/>
<feOffset dy="4"/>
<feGaussianBlur stdDeviation="2"/>
<feComposite in2="hardAlpha" operator="out"/>
<feColorMatrix type="matrix" values="0 0 0 0 0 0 0 0 0 0 0 0 0 0 0 0 0 0 0.25 0"/>
<feBlend mode="normal" in2="BackgroundImageFix" result="effect1_dropShadow_176_54"/>
<feBlend mode="normal" in="SourceGraphic" in2="effect1_dropShadow_176_54" result="shape"/>
</filter>
<filter id="filter7_d_176_54" x="235.851" y="190.162" width="93.9851" height="49.1997" filterUnits="userSpaceOnUse" color-interpolation-filters="sRGB">
<feFlood flood-opacity="0" result="BackgroundImageFix"/>
<feColorMatrix in="SourceAlpha" type="matrix" values="0 0 0 0 0 0 0 0 0 0 0 0 0 0 0 0 0 0 127 0" result="hardAlpha"/>
<feOffset dy="4"/>
<feGaussianBlur stdDeviation="2"/>
<feComposite in2="hardAlpha" operator="out"/>
<feColorMatrix type="matrix" values="0 0 0 0 0 0 0 0 0 0 0 0 0 0 0 0 0 0 0.25 0"/>
<feBlend mode="normal" in2="BackgroundImageFix" result="effect1_dropShadow_176_54"/>
<feBlend mode="normal" in="SourceGraphic" in2="effect1_dropShadow_176_54" result="shape"/>
</filter>
<filter id="filter8_d_176_54" x="346.8" y="115.737" width="73.1824" height="49.1997" filterUnits="userSpaceOnUse" color-interpolation-filters="sRGB">
<feFlood flood-opacity="0" result="BackgroundImageFix"/>
<feColorMatrix in="SourceAlpha" type="matrix" values="0 0 0 0 0 0 0 0 0 0 0 0 0 0 0 0 0 0 127 0" result="hardAlpha"/>
<feOffset dy="4"/>
<feGaussianBlur stdDeviation="2"/>
<feComposite in2="hardAlpha" operator="out"/>
<feColorMatrix type="matrix" values="0 0 0 0 0 0 0 0 0 0 0 0 0 0 0 0 0 0 0.25 0"/>
<feBlend mode="normal" in2="BackgroundImageFix" result="effect1_dropShadow_176_54"/>
<feBlend mode="normal" in="SourceGraphic" in2="effect1_dropShadow_176_54" result="shape"/>
</filter>
<linearGradient id="paint0_linear_176_54" x1="285.839" y1="99.7883" x2="285.839" y2="304.459" gradientUnits="userSpaceOnUse">
<stop stop-color="#0E2C88"/>
<stop offset="1" stop-color="#0E2C88" stop-opacity="0"/>
</linearGradient>
<linearGradient id="paint1_linear_176_54" x1="285.145" y1="178.412" x2="285.145" y2="305.787" gradientUnits="userSpaceOnUse">
<stop stop-color="#0E2C88"/>
<stop offset="1" stop-color="#0E2C88" stop-opacity="0"/>
</linearGradient>
<linearGradient id="paint2_linear_176_54" x1="285.145" y1="252.838" x2="285.145" y2="307.781" gradientUnits="userSpaceOnUse">
<stop stop-color="#0E2C88"/>
<stop offset="1" stop-color="#0E2C88" stop-opacity="0"/>
</linearGradient>
</defs>
</svg>
